<svg version="1" xmlns="http://www.w3.org/2000/svg" width="1365.333" height="1365.333" viewBox="0 0 1024.000000 1024.000000"><path d="M160.5 128.2c-.3.7-.4 128.1-.3 283.2l.3 281.8 175.6 101.4L511.7 896l163.4-94.3C765 749.8 844 704.3 850.7 700.4l12.2-6.9-.2-162-.2-162h-581v61l260.3.3 260.2.2-.2 113.2-.3 113.2L657 740.3c-129.1 74.1-144.8 82.8-147 81.9-4.1-1.5-288.5-165-288.2-165.6.1-.4.2-105.7.2-234.1V189h580v121h61l-.2-91.3-.3-91.2-350.8-.3c-280.1-.2-350.9 0-351.2 1z"/><path d="M281.5 249.3c-.3.7-.4 14.5-.3 30.7l.3 29.5 230.3.3 230.2.2-.2-30.7-.3-30.8-229.8-.3c-184.4-.2-229.9 0-230.2 1.1zM281.5 491.2c-.3.7-.4 30.5-.3 66.3l.3 65 115 65.6 115 65.7 6.6-3.7c3.6-2 55.5-31.5 115.2-65.6l108.7-62-.2-66-.3-66-229.8-.3c-183.3-.2-229.9 0-230.2 1z"/></svg>